<?xml version="1.0" encoding="utf-8"?>
<!-- Generator: Adobe Illustrator 14.0.0, SVG Export Plug-In . SVG Version: 6.00 Build 43363)  -->
<!DOCTYPE svg PUBLIC "-//W3C//DTD SVG 1.1//EN" "http://www.w3.org/Graphics/SVG/1.1/DTD/svg11.dtd">
<svg version="1.1" id="Layer_1" xmlns="http://www.w3.org/2000/svg" xmlns:xlink="http://www.w3.org/1999/xlink" x="0px" y="0px"
	 width="612px" height="792px" viewBox="0 0 612 792" enable-background="new 0 0 612 792" xml:space="preserve">
<path fill="#545554" d="M244.001,282.229c0.584,0,1.149-0.125,1.7-0.319c6.769,24.533,24.921,42.134,46.256,42.086
	c21.822-0.054,40.235-18.514,46.509-43.958c0.646,0.285,1.304,0.479,1.998,0.479c4.322-0.014,7.844-5.887,7.816-13.105
	c-0.014-7.171-3.494-12.961-7.763-13.058c-2.535-31.918-23.47-56.795-48.86-56.73c-25.822,0.061-46.872,25.897-48.66,58.603
	c-3.884,0.793-6.898,6.25-6.875,12.932C236.137,276.391,239.658,282.243,244.001,282.229"/>
<path fill="#898989" d="M392.571,352.605c-12.779-20.153-45.745-31.231-72.647-28.894L290.87,379.89l-29.387-56.015
	c-26.929-2.175-59.803,9.123-72.47,29.336c-11.916,20.976-8.068,66.57-8.068,66.57l109.917-0.258l0.122-0.108l0.126,0.108
	l109.936-0.395C401.047,419.128,404.615,373.493,392.571,352.605"/>
</svg>
